# xmcd CD database file
#
# Track frame offsets:
#	150
#	5655
#	11167
#	14171
#	18840
#	20811
#	26550
#	31914
#	34251
#	38625
#	41173
#	46658
#	51394
#	53886
#	58317
#	60546
#	66060
#	70129
#	71791
#	76150
#	78381
#	83683
#	87394
#	89255
#	93839
#	96008
#	101362
#	105509
#	107525
#	112589
#	115108
#	120417
#	125516
#	127810
#	132112
#	133953
#	139425
#	143529
#	145631
#	150774
#	153615
#	159259
#	164338
#	167090
#	171779
#	174168
#	179802
#	185038
#	187685
#	192851
#	195228
#	204402
#	213808
#
# Disc length: 2873 seconds
#
# Revision: 2
# Processed by: cddbd v1.4PL0 Copyright (c) Steve Scherf et al.
# Submitted via: CDex 1.50Beta3
#
DISCID=bd0b3735
DTITLE=Vocabulary Marathon - V4C
DYEAR=2002
DGENRE=Data
TTITLE0=Daily Words 11
TTITLE1=Situation 11A
TTITLE2=Situation 11A E
TTITLE3=Situation 11B
TTITLE4=Situation 11B E
TTITLE5=Daily Words 12
TTITLE6=Situation 12A
TTITLE7=Situation 12A E
TTITLE8=Situation 12B
TTITLE9=Situation 12B E
TTITLE10=Daily Words 13
TTITLE11=Situation 13A
TTITLE12=Situation 13A E
TTITLE13=Situation 13B
TTITLE14=Situation 13B E
TTITLE15=Daily Words 14
TTITLE16=Situation 14A
TTITLE17=Situation 14A E
TTITLE18=Situation 14B
TTITLE19=Situation 14B E
TTITLE20=Daily Words 15
TTITLE21=Situation 15A
TTITLE22=Situation 15A E
TTITLE23=Situation 15B
TTITLE24=Situation 15B E
TTITLE25=Daily Words 16
TTITLE26=Situation 16A
TTITLE27=Situation 16A E
TTITLE28=Situation 16B
TTITLE29=Situation 16B E
TTITLE30=Daily Words 17
TTITLE31=Situation 17A
TTITLE32=Situation 17A E
TTITLE33=Situation 17B
TTITLE34=Situation 17B E
TTITLE35=Daily Words 18
TTITLE36=Situation 18A
TTITLE37=Situation 18A E
TTITLE38=Situation 18B
TTITLE39=Situation 18B E
TTITLE40=Daily Words 19
TTITLE41=Situation 19A
TTITLE42=Situation 19A E
TTITLE43=Situation 19B
TTITLE44=Situation 19B E
TTITLE45=Daily Words 20
TTITLE46=Situation 20A
TTITLE47=Situation 20A E
TTITLE48=Situation 20B
TTITLE49=Situation 20B E
TTITLE50=Monthly Test V4-1
TTITLE51=Monthly Test V4-2
TTITLE52=Ending
EXTD=YEAR: 2002
EXTT0=
EXTT1=
EXTT2=
EXTT3=
EXTT4=
EXTT5=
EXTT6=
EXTT7=
EXTT8=
EXTT9=
EXTT10=
EXTT11=
EXTT12=
EXTT13=
EXTT14=
EXTT15=
EXTT16=
EXTT17=
EXTT18=
EXTT19=
EXTT20=
EXTT21=
EXTT22=
EXTT23=
EXTT24=
EXTT25=
EXTT26=
EXTT27=
EXTT28=
EXTT29=
EXTT30=
EXTT31=
EXTT32=
EXTT33=
EXTT34=
EXTT35=
EXTT36=
EXTT37=
EXTT38=
EXTT39=
EXTT40=
EXTT41=
EXTT42=
EXTT43=
EXTT44=
EXTT45=
EXTT46=
EXTT47=
EXTT48=
EXTT49=
EXTT50=
EXTT51=
EXTT52=
PLAYORDER=
